<mxfile host="app.diagrams.net" agent="Mozilla/5.0 (Windows NT 10.0; Win64; x64) AppleWebKit/537.36 (KHTML, like Gecko) Chrome/130.0.0.0 Safari/537.36" version="24.8.4">
  <diagram name="Seite-1" id="DnXB-zZTz2Z56x0SJixp">
    <mxGraphModel dx="882" dy="464" grid="1" gridSize="10" guides="1" tooltips="1" connect="1" arrows="1" fold="1" page="1" pageScale="1" pageWidth="827" pageHeight="1169" math="0" shadow="0">
      <root>
        <mxCell id="0" />
        <mxCell id="1" parent="0" />
        <mxCell id="53tc38JX_SwPdcK8660q-1" value="004 - Look and Feel-GUI-wenige Tabs/Slides" style="rounded=0;whiteSpace=wrap;html=1;" parent="1" vertex="1">
          <mxGeometry x="110" y="490" width="120" height="60" as="geometry" />
        </mxCell>
        <mxCell id="TPI1LNmROSnbRB8zEQOW-5" value="003 -&amp;nbsp;Look and Feel - Usablity - angepasstes Farbschema" style="rounded=0;whiteSpace=wrap;html=1;" parent="1" vertex="1">
          <mxGeometry x="110" y="430" width="120" height="60" as="geometry" />
        </mxCell>
        <mxCell id="53tc38JX_SwPdcK8660q-2" value="005 - Tablet UI / optimiert fÃ¼r Touch Interface" style="rounded=0;whiteSpace=wrap;html=1;" parent="1" vertex="1">
          <mxGeometry x="110" y="550" width="120" height="60" as="geometry" />
        </mxCell>
        <mxCell id="BMYMCdN_uTUJN-gc38pX-7" value="006 - Performance - schnelle Antwortzeit" style="rounded=0;whiteSpace=wrap;html=1;" vertex="1" parent="1">
          <mxGeometry x="110" y="680" width="120" height="60" as="geometry" />
        </mxCell>
        <mxCell id="BMYMCdN_uTUJN-gc38pX-8" value="007 - Wartbarkeit und Support" style="rounded=0;whiteSpace=wrap;html=1;" vertex="1" parent="1">
          <mxGeometry x="110" y="760" width="120" height="60" as="geometry" />
        </mxCell>
        <mxCell id="BMYMCdN_uTUJN-gc38pX-9" value="008 - Datensicherheit" style="rounded=0;whiteSpace=wrap;html=1;" vertex="1" parent="1">
          <mxGeometry x="110" y="850" width="120" height="60" as="geometry" />
        </mxCell>
        <mxCell id="BMYMCdN_uTUJN-gc38pX-10" value="009 - Gesetzliche Anforderungen" style="rounded=0;whiteSpace=wrap;html=1;" vertex="1" parent="1">
          <mxGeometry x="110" y="910" width="120" height="60" as="geometry" />
        </mxCell>
        <mxCell id="BMYMCdN_uTUJN-gc38pX-11" value="010 - Kulturelles (DE Spracheinstellungen)" style="rounded=0;whiteSpace=wrap;html=1;" vertex="1" parent="1">
          <mxGeometry x="110" y="1000" width="120" height="60" as="geometry" />
        </mxCell>
        <mxCell id="BMYMCdN_uTUJN-gc38pX-21" value="002 - Look and Feel&lt;div&gt;&amp;nbsp;- Lables&lt;div&gt;(Beschriftung der Eingabefelder)&lt;/div&gt;&lt;/div&gt;" style="rounded=0;whiteSpace=wrap;html=1;" vertex="1" parent="1">
          <mxGeometry x="110" y="370" width="120" height="60" as="geometry" />
        </mxCell>
        <mxCell id="BMYMCdN_uTUJN-gc38pX-22" value="001&amp;nbsp;&lt;span style=&quot;background-color: initial;&quot;&gt;Usability&amp;nbsp;&lt;/span&gt;&lt;div&gt;&lt;div style=&quot;font-size: 14px;&quot;&gt;&lt;div style=&quot;font-size: 12px; text-align: left; text-wrap-mode: nowrap;&quot;&gt;&lt;span style=&quot;text-align: center; text-wrap-mode: wrap;&quot;&gt;- Look and Feel - (GUI&lt;/span&gt;&lt;span style=&quot;text-align: center; text-wrap-mode: wrap; background-color: initial;&quot;&gt;)&lt;/span&gt;&lt;/div&gt;&lt;div&gt;&lt;span style=&quot;text-align: center; text-wrap-mode: wrap; background-color: initial;&quot;&gt;&lt;br&gt;&lt;/span&gt;&lt;/div&gt;&lt;/div&gt;&lt;/div&gt;" style="rounded=0;whiteSpace=wrap;html=1;" vertex="1" parent="1">
          <mxGeometry x="110" y="280" width="140" height="90" as="geometry" />
        </mxCell>
      </root>
    </mxGraphModel>
  </diagram>
</mxfile>
